<?xml version="1.0" encoding="UTF-8" standalone="no"?>
<!-- Created with Inkscape (http://www.inkscape.org/) -->

<svg
   xmlns:dc="http://purl.org/dc/elements/1.1/"
   xmlns:cc="http://creativecommons.org/ns#"
   xmlns:rdf="http://www.w3.org/1999/02/22-rdf-syntax-ns#"
   xmlns:svg="http://www.w3.org/2000/svg"
   xmlns="http://www.w3.org/2000/svg"
   xmlns:sodipodi="http://sodipodi.sourceforge.net/DTD/sodipodi-0.dtd"
   xmlns:inkscape="http://www.inkscape.org/namespaces/inkscape"
   width="1052.36"
   height="744.09003"
   id="svg2"
   version="1.1"
   inkscape:version="0.48.1 r9760"
   sodipodi:docname="drawing3.svg">
  <defs
     id="defs4" />
  <sodipodi:namedview
     id="base"
     pagecolor="#ffffff"
     bordercolor="#666666"
     borderopacity="1.0"
     inkscape:pageopacity="0.0"
     inkscape:pageshadow="2"
     inkscape:zoom="0.5"
     inkscape:cx="380.71429"
     inkscape:cy="514.28571"
     inkscape:document-units="px"
     inkscape:current-layer="layer1"
     showgrid="false"
     inkscape:window-width="1002"
     inkscape:window-height="742"
     inkscape:window-x="-1"
     inkscape:window-y="-1"
     inkscape:window-maximized="0"
     width="1052.36px" />
  <metadata
     id="metadata7">
    <rdf:RDF>
      <cc:Work
         rdf:about="">
        <dc:format>image/svg+xml</dc:format>
        <dc:type
           rdf:resource="http://purl.org/dc/dcmitype/StillImage" />
        <dc:title></dc:title>
      </cc:Work>
    </rdf:RDF>
  </metadata>
  <g
     inkscape:label="Layer 1"
     inkscape:groupmode="layer"
     id="layer1"
     transform="translate(0,-308.27218)">
    <path
       style="fill:#808000;stroke:#000000;stroke-width:1px;stroke-linecap:butt;stroke-linejoin:miter;stroke-opacity:1"
       d="m 26,858.3622 194,-36 192,-14 170,-6 178,12 56,35.99998 28,50.00002 -844,4 z"
       id="path3087"
       inkscape:connector-curvature="0"
       sodipodi:nodetypes="ccccccccc" />
    <path
       style="fill:#cccccc;stroke:#000000;stroke-width:1px;stroke-linecap:butt;stroke-linejoin:miter;stroke-opacity:1"
       d="m 88,370.36218 84,-28 78,-2 62,18 22,36 -12,34 -24,8 -58,8 -48,6 -60,-8 -38,-14 -20,-20 -10,-20 z"
       id="path3092"
       inkscape:connector-curvature="0"
       sodipodi:nodetypes="cccccccccccccc" />
    <path
       style="fill:#0000ff;stroke:#000000;stroke-width:0.43596268px;stroke-linecap:butt;stroke-linejoin:miter;stroke-opacity:1"
       d="m -14,902.0167 254,-28.1294 234,3.4212 390,23.1877 -6,16.3455 -802,7.5205 z"
       id="path3178"
       inkscape:connector-curvature="0"
       sodipodi:nodetypes="ccccccc" />
    <path
       style="fill:#0000ff"
       d="m 368.71429,1078.3714 c 0,-2.2015 14.18448,-63.1294 14.8554,-63.8098 0.96146,-0.975 127.47669,-4.8197 128.39461,-3.9018 0.50553,0.5056 21.25611,17.972 13.52884,35.1679 l -15.39029,34.2488 -66.69428,16 c -37.80908,9.0704 -74.69428,-16.7673 -74.69428,-17.7051 z"
       id="path3192"
       inkscape:connector-curvature="0"
       sodipodi:nodetypes="sccscss" />
  </g>
</svg>
